<svg width="76" height="12" viewBox="0 0 76 12" fill="none" xmlns="http://www.w3.org/2000/svg">
<path d="M3.88578 1.2V11H2.49978V2.418H0.287781V1.2H3.88578ZM8.82942 5.106C10.2294 5.106 11.2561 5.372 11.9094 5.904C12.5721 6.42667 12.9034 7.14533 12.9034 8.06C12.9034 8.63867 12.7634 9.16133 12.4834 9.628C12.2128 10.0853 11.7974 10.4493 11.2374 10.72C10.6868 10.9813 10.0054 11.112 9.19342 11.112C8.50276 11.112 7.83542 11.0093 7.19142 10.804C6.54742 10.5893 6.01542 10.2953 5.59542 9.922L6.23942 8.816C6.57542 9.13333 7.00476 9.39 7.52742 9.586C8.05009 9.77267 8.60076 9.866 9.17942 9.866C9.91676 9.866 10.4861 9.712 10.8874 9.404C11.2981 9.08667 11.5034 8.65733 11.5034 8.116C11.5034 7.528 11.2794 7.08467 10.8314 6.786C10.3834 6.478 9.61809 6.324 8.53542 6.324H6.30942L6.82742 1.2H12.3574V2.418H8.00342L7.73742 5.106H8.82942ZM27.7123 3.51C28.6456 3.51 29.3829 3.78067 29.9243 4.322C30.4749 4.86333 30.7503 5.666 30.7503 6.73V11H29.4063V6.884C29.4063 6.16533 29.2383 5.624 28.9023 5.26C28.5756 4.896 28.1043 4.714 27.4883 4.714C26.8069 4.714 26.2656 4.92867 25.8643 5.358C25.4629 5.778 25.2623 6.38467 25.2623 7.178V11H23.9183V6.884C23.9183 6.16533 23.7503 5.624 23.4143 5.26C23.0876 4.896 22.6163 4.714 22.0003 4.714C21.3189 4.714 20.7776 4.92867 20.3763 5.358C19.9749 5.778 19.7743 6.38467 19.7743 7.178V11H18.4303V3.58H19.7183V4.686C19.9889 4.30333 20.3436 4.014 20.7823 3.818C21.2209 3.61267 21.7203 3.51 22.2803 3.51C22.8589 3.51 23.3723 3.62667 23.8203 3.86C24.2683 4.09333 24.6136 4.434 24.8563 4.882C25.1363 4.45267 25.5236 4.11667 26.0183 3.874C26.5223 3.63133 27.0869 3.51 27.7123 3.51ZM33.2232 3.58H34.5672V11H33.2232V3.58ZM33.8952 2.152C33.6339 2.152 33.4146 2.068 33.2372 1.9C33.0692 1.732 32.9852 1.52667 32.9852 1.284C32.9852 1.04133 33.0692 0.836 33.2372 0.668C33.4146 0.490666 33.6339 0.402 33.8952 0.402C34.1566 0.402 34.3712 0.486 34.5392 0.654C34.7166 0.812666 34.8052 1.01333 34.8052 1.256C34.8052 1.508 34.7166 1.72267 34.5392 1.9C34.3712 2.068 34.1566 2.152 33.8952 2.152ZM41.0954 3.51C42.038 3.51 42.7847 3.78533 43.3354 4.336C43.8954 4.87733 44.1754 5.67533 44.1754 6.73V11H42.8314V6.884C42.8314 6.16533 42.6587 5.624 42.3134 5.26C41.968 4.896 41.4734 4.714 40.8294 4.714C40.1014 4.714 39.5274 4.92867 39.1074 5.358C38.6874 5.778 38.4774 6.38467 38.4774 7.178V11H37.1334V3.58H38.4214V4.7C38.692 4.31733 39.056 4.02333 39.5134 3.818C39.98 3.61267 40.5074 3.51 41.0954 3.51ZM53.5787 3.58V11H52.3047V9.88C52.034 10.2627 51.6747 10.5613 51.2267 10.776C50.788 10.9813 50.3073 11.084 49.7847 11.084C48.7953 11.084 48.016 10.8133 47.4467 10.272C46.8773 9.72133 46.5927 8.914 46.5927 7.85V3.58H47.9367V7.696C47.9367 8.41467 48.1093 8.96067 48.4547 9.334C48.8 9.698 49.2947 9.88 49.9387 9.88C50.648 9.88 51.208 9.66533 51.6187 9.236C52.0293 8.80667 52.2347 8.2 52.2347 7.416V3.58H53.5787ZM60.3093 10.566C60.1133 10.734 59.8706 10.8647 59.5813 10.958C59.2919 11.042 58.9933 11.084 58.6853 11.084C57.9386 11.084 57.3599 10.8833 56.9493 10.482C56.5386 10.0807 56.3333 9.50667 56.3333 8.76V4.686H55.0733V3.58H56.3333V1.956H57.6773V3.58H59.8053V4.686H57.6773V8.704C57.6773 9.10533 57.7753 9.41333 57.9713 9.628C58.1766 9.84267 58.4659 9.95 58.8393 9.95C59.2499 9.95 59.5999 9.83333 59.8893 9.6L60.3093 10.566ZM68.3941 7.332C68.3941 7.43467 68.3847 7.57 68.3661 7.738H62.3461C62.4301 8.39133 62.7147 8.91867 63.2001 9.32C63.6947 9.712 64.3061 9.908 65.0341 9.908C65.9207 9.908 66.6347 9.60933 67.1761 9.012L67.9181 9.88C67.5821 10.272 67.1621 10.5707 66.6581 10.776C66.1634 10.9813 65.6081 11.084 64.9921 11.084C64.2081 11.084 63.5127 10.9253 62.9061 10.608C62.2994 10.2813 61.8281 9.82867 61.4921 9.25C61.1654 8.67133 61.0021 8.018 61.0021 7.29C61.0021 6.57133 61.1607 5.92267 61.4781 5.344C61.8047 4.76533 62.2481 4.31733 62.8081 4C63.3774 3.67333 64.0167 3.51 64.7261 3.51C65.4354 3.51 66.0654 3.67333 66.6161 4C67.1761 4.31733 67.6101 4.76533 67.9181 5.344C68.2354 5.92267 68.3941 6.58533 68.3941 7.332ZM64.7261 4.644C64.0821 4.644 63.5407 4.84 63.1021 5.232C62.6727 5.624 62.4207 6.13733 62.3461 6.772H67.1061C67.0314 6.14667 66.7747 5.638 66.3361 5.246C65.9067 4.84467 65.3701 4.644 64.7261 4.644ZM72.3883 11.084C71.7817 11.084 71.1983 11.0047 70.6383 10.846C70.0783 10.678 69.6397 10.468 69.3223 10.216L69.8823 9.152C70.209 9.38533 70.6057 9.572 71.0723 9.712C71.539 9.852 72.0103 9.922 72.4863 9.922C73.6623 9.922 74.2503 9.586 74.2503 8.914C74.2503 8.69 74.171 8.51267 74.0123 8.382C73.8537 8.25133 73.653 8.158 73.4103 8.102C73.177 8.03667 72.841 7.96667 72.4023 7.892C71.805 7.79867 71.315 7.69133 70.9323 7.57C70.559 7.44867 70.237 7.24333 69.9663 6.954C69.6957 6.66467 69.5603 6.25867 69.5603 5.736C69.5603 5.064 69.8403 4.52733 70.4003 4.126C70.9603 3.71533 71.7117 3.51 72.6543 3.51C73.149 3.51 73.6437 3.57067 74.1383 3.692C74.633 3.81333 75.039 3.97667 75.3563 4.182L74.7823 5.246C74.1757 4.854 73.4617 4.658 72.6403 4.658C72.071 4.658 71.637 4.75133 71.3383 4.938C71.0397 5.12467 70.8903 5.372 70.8903 5.68C70.8903 5.92267 70.9743 6.114 71.1423 6.254C71.3103 6.394 71.5157 6.49667 71.7583 6.562C72.0103 6.62733 72.3603 6.702 72.8083 6.786C73.4057 6.88867 73.8863 7.00067 74.2503 7.122C74.6237 7.234 74.941 7.43 75.2023 7.71C75.4637 7.99 75.5943 8.382 75.5943 8.886C75.5943 9.558 75.305 10.0947 74.7263 10.496C74.157 10.888 73.3777 11.084 72.3883 11.084Z" fill="#2A90D9"/>
</svg>
